<svg width="73" height="105" viewBox="0 0 73 105" fill="none" xmlns="http://www.w3.org/2000/svg">
<path d="M72.9922 105H1.13281V89.8828L26.9375 63.7969C34.5781 55.9688 39.5703 50.5547 41.9141 47.5547C44.2578 44.5078 45.9453 41.6953 46.9766 39.1172C48.0078 36.5391 48.5234 33.8672 48.5234 31.1016C48.5234 26.9766 47.375 23.9062 45.0781 21.8906C42.8281 19.875 39.8047 18.8672 36.0078 18.8672C32.0234 18.8672 28.1562 19.7812 24.4062 21.6094C20.6562 23.4375 16.7422 26.0391 12.6641 29.4141L0.851562 15.4219C5.91406 11.1094 10.1094 8.0625 13.4375 6.28125C16.7656 4.5 20.3984 3.14062 24.3359 2.20312C28.2734 1.21875 32.6797 0.726562 37.5547 0.726562C43.9766 0.726562 49.6484 1.89844 54.5703 4.24219C59.4922 6.58594 63.3125 9.86719 66.0312 14.0859C68.75 18.3047 70.1094 23.1328 70.1094 28.5703C70.1094 33.3047 69.2656 37.7578 67.5781 41.9297C65.9375 46.0547 63.3594 50.2969 59.8438 54.6562C56.375 59.0156 50.2344 65.2266 41.4219 73.2891L28.2031 85.7344V86.7188H72.9922V105Z" fill="#FF7A00"/>
</svg>
