<svg width="73" height="107" viewBox="0 0 73 107" fill="none" xmlns="http://www.w3.org/2000/svg">
<path d="M68.9844 25.1953C68.9844 31.6172 67.0391 37.0781 63.1484 41.5781C59.2578 46.0781 53.7969 49.1719 46.7656 50.8594V51.2812C55.0625 52.3125 61.3438 54.8438 65.6094 58.875C69.875 62.8594 72.0078 68.25 72.0078 75.0469C72.0078 84.9375 68.4219 92.6484 61.25 98.1797C54.0781 103.664 43.8359 106.406 30.5234 106.406C19.3672 106.406 9.47656 104.555 0.851562 100.852V82.3594C4.83594 84.375 9.21875 86.0156 14 87.2812C18.7812 88.5469 23.5156 89.1797 28.2031 89.1797C35.375 89.1797 40.6719 87.9609 44.0938 85.5234C47.5156 83.0859 49.2266 79.1719 49.2266 73.7812C49.2266 68.9531 47.2578 65.5312 43.3203 63.5156C39.3828 61.5 33.1016 60.4922 24.4766 60.4922H16.6719V43.8281H24.6172C32.5859 43.8281 38.3984 42.7969 42.0547 40.7344C45.7578 38.625 47.6094 35.0391 47.6094 29.9766C47.6094 22.1953 42.7344 18.3047 32.9844 18.3047C29.6094 18.3047 26.1641 18.8672 22.6484 19.9922C19.1797 21.1172 15.3125 23.0625 11.0469 25.8281L0.992188 10.8516C10.3672 4.10156 21.5469 0.726562 34.5312 0.726562C45.1719 0.726562 53.5625 2.88281 59.7031 7.19531C65.8906 11.5078 68.9844 17.5078 68.9844 25.1953Z" fill="#FF7A00"/>
</svg>
