<svg width="70" height="105" viewBox="0 0 70 105" fill="none" xmlns="http://www.w3.org/2000/svg">
<path d="M36.5391 37.3281C46.4766 37.3281 54.375 40.1172 60.2344 45.6953C66.1406 51.2734 69.0938 58.9141 69.0938 68.6172C69.0938 80.1016 65.5547 88.9375 58.4766 95.125C51.3984 101.312 41.2734 104.406 28.1016 104.406C16.6641 104.406 7.42969 102.555 0.398438 98.8516V80.0781C4.10156 82.0469 8.41406 83.6641 13.3359 84.9297C18.2578 86.1484 22.9219 86.7578 27.3281 86.7578C40.5938 86.7578 47.2266 81.3203 47.2266 70.4453C47.2266 60.0859 40.3594 54.9062 26.625 54.9062C24.1406 54.9062 21.3984 55.1641 18.3984 55.6797C15.3984 56.1484 12.9609 56.6641 11.0859 57.2266L2.4375 52.5859L6.30469 0.203125H62.0625V18.625H25.3594L23.4609 38.8047L25.9219 38.3125C28.7812 37.6562 32.3203 37.3281 36.5391 37.3281Z" fill="#FF7A00"/>
</svg>
